<svg version="1.0" xmlns="http://www.w3.org/2000/svg"
 viewBox="0 290 800 215">
<g transform="translate(0.000000,800.000000) scale(0.100000,-0.100000)"
 stroke="none">
<path fill="#3D7235" d="M660 4964 c-19 -8 -43 -23 -54 -32 -16 -14 -176 -253 -463 -689 l-58
-88 -3 -494 -3 -493 25 -43 c25 -43 57 -70 110 -92 21 -10 150 -13 535 -13
474 0 509 2 548 19 28 13 132 110 330 308 250 252 290 296 306 339 16 46 17
93 15 595 -3 535 -3 545 -25 584 -27 50 -57 79 -107 99 -56 23 -1102 23 -1156
0z m710 -448 l0 -225 53 -3 52 -3 3 -132 3 -133 -236 0 -235 0 0 353 c0 195 3
357 7 360 3 4 84 7 180 7 l173 0 0 -224z"/>
<path fill="#FFFFFF" d="M2337 4283 c-4 -3 -7 -215 -7 -469 0 -448 1 -464 19 -474 21 -11 509
-14 549 -4 22 6 23 10 20 88 l-3 81 -197 3 -198 2 0 374 c0 206 -3 381 -6 390
-5 13 -23 16 -88 16 -46 0 -86 -3 -89 -7z"/>
<path fill="#FFFFFF" d="M3220 3966 c-25 -7 -56 -18 -68 -25 -45 -24 -104 -85 -130 -135 -24
-46 -27 -61 -27 -161 0 -103 2 -113 30 -163 57 -103 153 -157 280 -157 109 0
179 29 241 99 78 90 103 214 65 335 -51 165 -220 254 -391 207z m146 -152 c55
-26 79 -76 79 -164 0 -85 -15 -116 -70 -150 -130 -80 -268 91 -192 240 40 80
110 108 183 74z"/>
<path fill="#FFFFFF" d="M3910 3966 c-96 -21 -156 -73 -206 -179 -20 -43 -24 -68 -24 -147 0
-84 3 -102 29 -155 31 -67 69 -105 140 -137 76 -35 247 -27 304 15 16 11 17
18 7 59 -7 25 -21 56 -31 67 -19 20 -22 20 -56 6 -87 -36 -178 -7 -208 68 -32
79 -7 196 50 233 29 19 93 23 166 10 l46 -8 21 50 c12 28 22 58 22 66 0 24
-38 43 -111 55 -77 13 -78 13 -149 -3z"/>
<path fill="#FFFFFF" d="M4253 4308 c-9 -16 -11 -945 -1 -961 9 -15 108 -21 141 -8 27 10 27
11 27 104 l0 94 51 16 c28 10 57 17 63 17 7 0 50 -46 97 -102 119 -145 110
-138 177 -138 69 0 99 7 106 26 3 7 -27 55 -68 106 -40 51 -88 115 -106 141
l-34 48 44 37 c76 62 112 105 142 169 44 92 40 97 -64 101 l-87 3 -31 -65
c-42 -90 -115 -147 -229 -182 -25 -7 -49 -14 -53 -14 -5 0 -8 132 -8 294 0
162 -3 301 -6 310 -5 13 -22 16 -79 16 -48 0 -77 -4 -82 -12z"/>
<path fill="#FFFFFF" d="M5314 3966 c-53 -13 -112 -45 -135 -72 -11 -14 -14 -11 -24 23 l-11
38 -66 3 c-56 2 -68 0 -76 -15 -5 -10 -10 -147 -11 -305 -2 -326 -7 -308 84
-308 84 0 85 1 85 160 0 116 3 149 21 197 35 97 116 152 188 127 46 -16 51
-43 51 -261 0 -196 1 -203 21 -214 29 -15 138 -7 150 12 5 8 9 85 9 172 0 135
3 163 19 195 46 89 145 130 202 83 24 -19 24 -23 29 -234 3 -119 8 -219 13
-223 13 -13 123 -17 146 -5 21 12 21 14 15 239 -3 125 -10 246 -16 269 -35
139 -251 172 -385 59 l-30 -25 -31 34 c-49 53 -155 75 -248 51z"/>
<path fill="#FFFFFF" d="M6323 3966 c-63 -16 -131 -68 -167 -131 -40 -67 -59 -181 -45 -264
28 -164 119 -247 269 -245 76 0 121 16 193 66 l27 19 0 -25 c0 -40 25 -56 89
-56 99 0 94 -19 84 326 l-8 299 -75 0 c-74 0 -75 0 -78 -27 -2 -16 -5 -28 -8
-28 -2 0 -22 12 -43 26 -39 25 -129 54 -166 53 -11 0 -43 -6 -72 -13z m193
-155 c69 -31 84 -60 84 -160 -1 -95 -9 -112 -71 -150 -73 -45 -179 -14 -225
65 -49 83 -21 195 61 241 48 27 96 29 151 4z"/>
<path fill="#FFFFFF" d="M6962 4218 c-8 -8 -12 -50 -12 -134 l0 -123 -42 -3 -43 -3 0 -70 0
-70 43 -3 42 -3 0 -229 c0 -216 1 -230 19 -240 22 -11 93 -13 129 -4 l22 6 0
234 0 234 69 0 c78 0 81 3 81 75 0 72 -4 75 -81 75 l-68 0 -3 133 -3 132 -70
3 c-46 2 -74 -1 -83 -10z"/>
<path fill="#FFFFFF" d="M7533 3966 c-89 -28 -147 -80 -187 -166 -22 -47 -26 -69 -26 -154 0
-84 4 -107 24 -150 31 -64 86 -118 151 -148 42 -20 66 -23 155 -22 110 0 190
21 242 63 l22 19 -19 42 c-31 68 -40 73 -84 50 -103 -52 -206 -48 -269 11 -17
16 -32 33 -32 37 0 9 75 39 240 98 149 52 160 58 160 84 0 42 -46 134 -87 175
-68 68 -186 93 -290 61z m137 -141 c16 -8 38 -27 49 -43 l20 -28 -102 -37
c-136 -48 -157 -53 -157 -36 0 8 11 37 24 66 18 38 35 57 63 72 46 24 65 26
103 6z"/>
</g>
</svg>
