<svg version="1.1" id="Layer_1" xmlns="http://www.w3.org/2000/svg" xmlns:xlink="http://www.w3.org/1999/xlink" x="0px" y="0px"
	 width="100%" viewBox="0 0 500 500" enable-background="new 0 0 500 500" xml:space="preserve">
<path fill="#3D7035" opacity="1.000000" stroke="none" 
	d="
M191.034775,15.891133 
	C191.412735,15.778850 191.790710,15.666570 192.740814,15.940058 
	C195.096252,16.550985 196.884949,17.005566 198.661957,16.963724 
	C209.454498,16.709612 220.243637,16.091530 231.035309,16.058962 
	C266.360687,15.952353 301.686707,16.045061 337.315765,16.344948 
	C338.431030,16.751511 339.241699,16.972460 340.055084,16.982805 
	C367.675201,17.334049 395.295197,17.856207 422.916077,17.907454 
	C434.300995,17.928579 444.591705,20.717005 454.058472,27.345898 
	C463.478973,32.576622 469.571045,40.499798 472.608704,50.230263 
	C474.545105,56.433029 474.726807,63.271236 475.088379,69.857849 
	C475.660217,80.274704 475.656250,90.722260 476.085449,101.149025 
	C476.139313,102.457581 477.341248,103.718880 478.011230,105.002068 
	C478.118591,107.373383 478.225983,109.744690 477.834351,112.624802 
	C476.923248,115.272163 476.162292,117.412918 476.175720,119.548790 
	C476.199585,123.341080 476.946564,127.130074 476.951599,130.921021 
	C477.011780,176.321518 476.974304,221.722137 477.047058,267.122589 
	C477.050293,269.130035 477.866272,271.136169 478.303680,273.142914 
	C478.335571,276.132477 478.367462,279.122040 477.868286,282.624908 
	C476.892090,284.778503 476.081635,286.414337 476.061768,288.059784 
	C475.941071,298.047180 476.000641,308.036774 475.989166,318.420349 
	C473.448547,325.547272 473.346741,333.205322 467.514587,338.681610 
	C464.203339,341.790833 461.529053,345.616364 458.818787,349.303711 
	C458.041931,350.360596 458.140259,352.060852 457.837280,353.466095 
	C457.837280,353.466095 457.699127,353.690857 457.275269,353.561401 
	C453.039124,355.243927 449.061707,356.908752 449.092468,362.143494 
	C449.092468,362.143494 449.070374,362.059723 448.857544,362.158081 
	C448.452545,362.554596 448.260406,362.852783 448.068237,363.150940 
	C448.068237,363.150940 448.063965,363.063202 447.731781,363.083496 
	C446.539215,364.545532 445.678833,365.987305 444.818481,367.429077 
	C444.818481,367.429108 444.677246,367.672607 444.247070,367.541870 
	C440.877930,369.276093 437.938965,371.141083 434.698059,373.044983 
	C433.953583,374.318298 433.863373,375.929626 433.011383,376.726044 
	C427.451050,381.923767 420.934296,385.968079 416.587128,392.631989 
	C414.015259,396.574463 409.675812,399.342529 406.240021,402.748444 
	C402.469727,406.485962 398.573853,410.142975 395.206635,414.225891 
	C392.659332,417.314636 390.856537,421.017395 388.722473,424.446899 
	C388.722473,424.446930 388.591705,424.582794 388.158020,424.463379 
	C387.041962,425.382019 386.359589,426.420044 385.677246,427.458099 
	C385.677246,427.458099 385.554352,427.552887 385.148560,427.427307 
	C377.332397,429.335724 376.717163,430.028290 376.617371,436.448395 
	C376.617371,436.448395 376.506042,436.508789 376.116119,436.406189 
	C372.024506,439.099792 368.089447,441.639954 364.675629,444.751923 
	C359.505371,449.465088 355.059204,455.030670 349.611664,459.361481 
	C345.855042,462.348083 343.413910,465.677155 342.036591,470.059601 
	C342.036591,470.059601 341.992371,470.021423 341.691345,470.053406 
	C341.107513,470.564728 340.824707,471.044098 340.541931,471.523499 
	C340.541931,471.523499 340.436676,471.513306 340.088440,471.401367 
	C336.798157,473.272583 333.673676,475.034729 330.950226,477.282623 
	C324.267822,482.798157 317.278046,487.553558 308.461731,488.943390 
	C305.281830,489.444702 302.153229,490.271606 298.536530,490.960938 
	C293.719147,490.987366 289.366455,491.002838 284.544556,491.010010 
	C277.704712,491.019470 271.334076,491.037201 264.543762,491.059326 
	C262.833191,491.345825 261.539062,491.887268 260.251923,491.871063 
	C242.180054,491.643616 224.109146,491.340179 205.567276,491.037262 
	C169.746964,490.678253 134.397064,490.364777 99.048203,489.960297 
	C94.764999,489.911285 90.488525,489.148407 86.206879,489.126831 
	C82.460693,489.107971 78.711594,489.666931 74.963791,489.970642 
	C74.963791,489.970642 74.878372,489.596924 74.353973,489.353638 
	C72.876427,489.069733 71.923271,489.029083 70.642746,488.987122 
	C69.547607,489.281372 68.779839,489.576904 68.012070,489.872437 
	C67.839294,489.909576 67.666519,489.946686 67.195747,489.594482 
	C66.268311,488.790070 65.638878,488.375031 64.754257,487.691772 
	C58.358425,484.063934 49.216728,484.667450 48.203342,475.271149 
	C46.235565,476.027527 44.414562,476.727539 42.593559,477.427521 
	C42.593559,477.427521 42.786449,476.976593 42.787529,476.833069 
	C38.863007,471.118347 34.937401,465.547180 31.009995,459.525208 
	C30.006399,446.329376 28.257275,433.591125 28.140652,420.837952 
	C27.766268,379.897003 27.995308,338.950562 27.995268,297.536926 
	C28.474413,272.572296 26.865461,248.027863 30.717680,223.603378 
	C31.467115,218.851669 32.943745,215.103836 34.975407,210.956055 
	C36.351501,208.146652 40.746807,205.896072 38.450474,201.611633 
	C38.450474,201.611633 38.540367,201.576614 38.880886,201.655182 
	C39.784679,200.475052 40.347958,199.216354 40.911232,197.957657 
	C41.114452,197.413696 41.317665,196.869720 42.117134,196.107925 
	C43.131241,194.906769 43.549091,193.923431 43.966946,192.940109 
	C43.966949,192.940109 44.004047,192.989578 44.334976,192.934906 
	C45.071556,191.864685 45.477207,190.849136 45.882858,189.833588 
	C45.882858,189.833588 45.921856,189.931320 46.231907,189.904175 
	C48.018299,187.233719 49.494637,184.590393 50.970978,181.947067 
	C50.970982,181.947067 51.004322,181.992569 51.331787,181.956726 
	C53.197979,179.137024 54.736702,176.353149 56.275429,173.569290 
	C56.275433,173.569290 56.371590,173.395584 56.727196,173.523438 
	C58.089508,173.636841 59.855160,173.910309 59.986603,173.563828 
	C61.449772,169.706985 62.660263,165.754288 63.938934,161.827454 
	C63.896046,161.558029 63.943573,161.305649 64.623322,160.970947 
	C68.210869,156.887329 71.264076,152.908569 74.244186,148.875793 
	C74.299019,148.801590 73.483551,148.084274 73.074158,147.667023 
	C73.483604,146.877228 73.893051,146.087433 74.972847,145.105896 
	C78.133797,143.932205 79.748428,142.514328 78.301178,139.572800 
	C78.301178,139.572800 78.409584,139.495850 78.793884,139.528397 
	C79.764381,138.341125 80.350586,137.121307 80.936783,135.901489 
	C80.936783,135.901489 80.987572,135.977859 81.333313,135.970749 
	C85.469078,135.366928 84.908081,132.467865 84.906281,129.864716 
	C84.906281,129.864716 84.958969,129.957626 85.279144,129.927353 
	C86.686562,127.871201 87.773788,125.845322 88.861023,123.819443 
	C88.861023,123.819443 88.917458,123.926956 89.216919,123.899734 
	C90.963509,122.340057 92.655098,120.972603 93.818718,119.248764 
	C102.383606,106.560287 110.932457,93.858696 119.270523,81.021049 
	C121.264511,77.951019 122.445480,74.352936 124.000381,70.997711 
	C124.000374,70.997711 124.000000,71.000000 124.388542,70.989708 
	C125.487938,69.610085 126.198792,68.240753 126.909637,66.871422 
	C126.909637,66.871422 126.967484,66.961464 127.280563,66.914841 
	C128.051529,65.881676 128.509415,64.895134 128.967300,63.908585 
	C137.640366,51.793343 145.542557,39.011715 155.245789,27.787008 
	C162.217209,19.722473 173.110016,17.502626 183.614105,16.110146 
	C185.419922,15.870756 187.266373,15.937885 189.649902,16.090755 
	C190.482101,16.175774 190.758438,16.033455 191.034775,15.891133 
M364.934570,216.500000 
	C364.934570,205.697357 364.934570,194.894699 364.934570,183.512192 
	C356.840637,183.512192 349.092712,183.512192 340.772949,183.512192 
	C340.772949,147.053894 340.772949,111.173622 340.772949,75.193169 
	C310.638153,75.193169 281.093658,75.193169 252.053192,75.193169 
	C252.053192,133.593719 252.053192,191.633102 252.053192,250.389618 
	C290.190369,250.389618 327.405518,250.389618 364.934540,250.389618 
	C364.934540,239.438644 364.934540,228.469315 364.934570,216.500000 
M354.475037,451.369232 
	C354.529175,451.158539 354.583313,450.947815 354.637451,450.737122 
	C354.504578,450.872437 354.371674,451.007751 354.475037,451.369232 
z"/>
<path fill="#3E6239" opacity="1.000000" stroke="none" 
	d="
M27.991550,298.006226 
	C27.995308,338.950562 27.766268,379.897003 28.140652,420.837952 
	C28.257275,433.591125 30.006399,446.329376 30.935293,459.725464 
	C30.728588,460.639374 30.529970,460.837250 30.266541,460.970062 
	C29.179237,453.944794 27.232388,446.930359 27.143551,439.892487 
	C26.548658,392.762390 26.349398,345.627350 26.550652,298.176941 
	C27.383532,297.908783 27.687540,297.957520 27.991550,298.006226 
z"/>
<path fill="#34652B" opacity="1.000000" stroke="none" 
	d="
M478.433136,272.747803 
	C477.866272,271.136169 477.050293,269.130035 477.047058,267.122589 
	C476.974304,221.722137 477.011780,176.321518 476.951599,130.921021 
	C476.946564,127.130074 476.199585,123.341080 476.175720,119.548790 
	C476.162292,117.412918 476.923248,115.272163 477.733856,113.059456 
	C478.266022,116.974556 478.513092,120.963730 478.516052,124.953079 
	C478.552277,174.086258 478.552795,223.219467 478.433136,272.747803 
z"/>
<path fill="#406C3A" opacity="1.000000" stroke="none" 
	d="
M454.003662,27.000677 
	C444.591705,20.717005 434.300995,17.928579 422.916077,17.907454 
	C395.295197,17.856207 367.675201,17.334049 340.055084,16.982805 
	C339.241699,16.972460 338.431030,16.751511 337.311462,16.116884 
	C337.003815,15.605011 336.981567,15.150846 336.981567,15.150846 
	C368.515320,15.506685 400.051086,15.746602 431.581543,16.291849 
	C440.569397,16.447275 448.701630,19.728109 455.711975,25.735664 
	C455.069244,26.436493 454.536438,26.718586 454.003662,27.000677 
z"/>
<path fill="#305B2B" opacity="1.000000" stroke="none" 
	d="
M75.033623,490.249603 
	C78.711594,489.666931 82.460693,489.107971 86.206879,489.126831 
	C90.488525,489.148407 94.764999,489.911285 99.048203,489.960297 
	C134.397064,490.364777 169.746964,490.678253 205.556580,491.333313 
	C206.015732,492.043701 206.014847,492.440094 206.013977,492.836487 
	C163.281906,492.238281 120.549828,491.640076 77.205795,490.754211 
	C76.271347,490.567108 75.948853,490.667664 75.626358,490.768188 
	C75.452057,490.688354 75.277756,490.608490 75.033623,490.249603 
z"/>
<path fill="#34652B" opacity="1.000000" stroke="none" 
	d="
M454.058472,27.345901 
	C454.536438,26.718586 455.069244,26.436493 455.880005,26.036179 
	C469.775055,34.399994 476.531219,46.727936 476.928009,62.702477 
	C477.270569,76.494125 477.736206,90.282715 478.079346,104.537369 
	C477.341248,103.718880 476.139313,102.457581 476.085449,101.149025 
	C475.656250,90.722260 475.660217,80.274704 475.088379,69.857849 
	C474.726807,63.271236 474.545105,56.433029 472.608704,50.230263 
	C469.571045,40.499798 463.478973,32.576622 454.058472,27.345901 
z"/>
<path fill="#416739" opacity="1.000000" stroke="none" 
	d="
M388.981262,424.272583 
	C390.856537,421.017395 392.659332,417.314636 395.206635,414.225891 
	C398.573853,410.142975 402.469727,406.485962 406.240021,402.748444 
	C409.675812,399.342529 414.015259,396.574463 416.587128,392.631989 
	C420.934296,385.968079 427.451050,381.923767 433.011383,376.726044 
	C433.863373,375.929626 433.953583,374.318298 434.702942,373.408020 
	C435.428101,374.526825 435.846405,375.321472 436.264709,376.116150 
	C423.288452,389.413330 410.317780,402.716003 397.331177,416.003113 
	C394.664673,418.731323 391.938690,421.401398 388.981262,424.272583 
z"/>
<path fill="#396231" opacity="1.000000" stroke="none" 
	d="
M27.995268,297.536926 
	C27.687540,297.957520 27.383532,297.908783 26.629608,297.754822 
	C26.506353,274.885773 26.784925,252.121094 27.181208,229.358459 
	C27.362482,218.946045 32.412544,210.376785 38.219330,201.833740 
	C40.746807,205.896072 36.351501,208.146652 34.975407,210.956055 
	C32.943745,215.103836 31.467115,218.851669 30.717680,223.603378 
	C26.865461,248.027863 28.474413,272.572296 27.995268,297.536926 
z"/>
<path fill="#285822" opacity="1.000000" stroke="none" 
	d="
M336.518097,15.085189 
	C336.981567,15.150846 337.003815,15.605011 337.008118,15.833075 
	C301.686707,16.045061 266.360687,15.952353 231.035309,16.058962 
	C220.243637,16.091530 209.454498,16.709612 198.661957,16.963724 
	C196.884949,17.005566 195.096252,16.550985 193.041901,15.971329 
	C194.210052,15.413960 195.649185,15.034650 197.088531,15.033802 
	C243.410553,15.006507 289.732605,15.015759 336.518097,15.085189 
z"/>
<path fill="#3F6537" opacity="1.000000" stroke="none" 
	d="
M123.715675,71.174370 
	C122.445480,74.352936 121.264511,77.951019 119.270523,81.021049 
	C110.932457,93.858696 102.383606,106.560287 93.818718,119.248764 
	C92.655098,120.972603 90.963509,122.340057 89.162170,123.873505 
	C99.807510,107.198448 110.807266,90.522552 121.805962,73.845963 
	C122.352386,73.017456 122.889511,72.182816 123.715675,71.174370 
z"/>
<path fill="#416739" opacity="1.000000" stroke="none" 
	d="
M342.344940,469.927429 
	C343.413910,465.677155 345.855042,462.348083 349.611664,459.361481 
	C355.059204,455.030670 359.505371,449.465088 364.675629,444.751923 
	C368.089447,441.639954 372.024506,439.099792 376.088013,436.462952 
	C365.184326,447.679932 353.918823,458.737610 342.344940,469.927429 
z"/>
<path fill="#3A6132" opacity="1.000000" stroke="none" 
	d="
M299.001221,490.949951 
	C302.153229,490.271606 305.281830,489.444702 308.461731,488.943390 
	C317.278046,487.553558 324.267822,482.798157 330.950226,477.282623 
	C333.673676,475.034729 336.798157,473.272583 340.093384,471.454010 
	C331.515167,479.858582 322.747711,488.378784 310.051727,490.552124 
	C306.664276,491.131958 303.243530,491.517303 299.418091,491.695312 
	C298.998108,491.398682 299.001221,490.949951 299.001221,490.949951 
z"/>
<path fill="#3D6335" opacity="1.000000" stroke="none" 
	d="
M458.086151,353.289307 
	C458.140259,352.060852 458.041931,350.360596 458.818787,349.303711 
	C461.529053,345.616364 464.203339,341.790833 467.514587,338.681610 
	C473.346741,333.205322 473.448547,325.547272 476.234314,318.415649 
	C476.490326,318.016205 476.980621,318.004547 476.980621,318.004547 
	C477.641449,326.890808 474.732483,334.565552 468.972412,341.217041 
	C465.490631,345.237640 461.885010,349.151001 458.086151,353.289307 
z"/>
<path fill="#3A5F34" opacity="1.000000" stroke="none" 
	d="
M42.747734,477.716400 
	C44.414562,476.727539 46.235565,476.027527 48.203342,475.271149 
	C49.216728,484.667450 58.358425,484.063934 64.750839,487.970764 
	C65.005074,488.888824 65.007538,489.259735 65.010002,489.630646 
	C56.130383,488.627594 48.949280,484.394440 42.747734,477.716400 
z"/>
<path fill="#214D1A" opacity="1.000000" stroke="none" 
	d="
M206.477234,492.905579 
	C206.014847,492.440094 206.015732,492.043701 206.027313,491.351257 
	C224.109146,491.340179 242.180054,491.643616 260.251923,491.871063 
	C261.539062,491.887268 262.833191,491.345825 264.554321,491.355652 
	C264.984802,492.044312 264.984985,492.441040 264.985199,492.837738 
	C245.636963,492.883362 226.288742,492.929016 206.477234,492.905579 
z"/>
<path fill="#34652B" opacity="1.000000" stroke="none" 
	d="
M476.998871,317.541809 
	C476.980621,318.004547 476.490326,318.016205 476.245178,318.020935 
	C476.000641,308.036774 475.941071,298.047180 476.061768,288.059784 
	C476.081635,286.414337 476.892090,284.778503 477.747253,283.060760 
	C477.777252,294.348572 477.397186,305.713837 476.998871,317.541809 
z"/>
<path fill="#3A5F34" opacity="1.000000" stroke="none" 
	d="
M30.313251,461.323212 
	C30.529970,460.837250 30.728588,460.639374 30.937098,460.176208 
	C34.937401,465.547180 38.863007,471.118347 42.682693,477.056488 
	C38.504505,472.174408 34.432232,466.925385 30.313251,461.323212 
z"/>
<path fill="#305B2B" opacity="1.000000" stroke="none" 
	d="
M265.449249,492.913055 
	C264.984985,492.441040 264.984802,492.044312 264.973999,491.351288 
	C271.334076,491.037201 277.704712,491.019470 284.545441,491.281372 
	C285.017975,491.923065 285.020447,492.285095 285.022919,492.647095 
	C278.653046,492.760864 272.283173,492.874634 265.449249,492.913055 
z"/>
<path fill="#3F6537" opacity="1.000000" stroke="none" 
	d="
M72.837067,147.857452 
	C73.483551,148.084274 74.299019,148.801590 74.244186,148.875793 
	C71.264076,152.908569 68.210869,156.887329 64.772972,160.844788 
	C67.120537,156.561279 69.860252,152.304581 72.837067,147.857452 
z"/>
<path fill="#416739" opacity="1.000000" stroke="none" 
	d="
M376.882538,436.272827 
	C376.717163,430.028290 377.332397,429.335724 385.100952,427.488586 
	C382.688690,430.482727 379.918213,433.289978 376.882538,436.272827 
z"/>
<path fill="#416738" opacity="1.000000" stroke="none" 
	d="
M436.559692,375.974915 
	C435.846405,375.321472 435.428101,374.526825 435.004883,373.369141 
	C437.938965,371.141083 440.877930,369.276093 444.130493,367.620728 
	C441.914276,370.498108 439.384460,373.165894 436.559692,375.974915 
z"/>
<path fill="#396231" opacity="1.000000" stroke="none" 
	d="
M63.653824,162.017975 
	C62.660263,165.754288 61.449772,169.706985 59.986603,173.563828 
	C59.855160,173.910309 58.089508,173.636841 56.783264,173.441498 
	C58.778725,169.557312 61.073719,165.882904 63.653824,162.017975 
z"/>
<path fill="#3D6335" opacity="1.000000" stroke="none" 
	d="
M449.428894,362.069397 
	C449.061707,356.908752 453.039124,355.243927 457.173828,353.645721 
	C454.919281,356.571442 452.342285,359.283386 449.428894,362.069397 
z"/>
<path fill="#396231" opacity="1.000000" stroke="none" 
	d="
M56.043175,173.779999 
	C54.736702,176.353149 53.197979,179.137024 51.304947,181.948135 
	C52.570728,179.313812 54.190826,176.652252 56.043175,173.779999 
z"/>
<path fill="#214D1A" opacity="1.000000" stroke="none" 
	d="
M285.438080,492.712219 
	C285.020447,492.285095 285.017975,491.923065 285.014648,491.289703 
	C289.366455,491.002838 293.719147,490.987366 298.536530,490.960938 
	C299.001221,490.949951 298.998108,491.398682 298.989258,491.622833 
	C294.604675,492.157104 290.228943,492.467224 285.438080,492.712219 
z"/>
<path fill="#396231" opacity="1.000000" stroke="none" 
	d="
M50.681614,182.118652 
	C49.494637,184.590393 48.018299,187.233719 46.183037,189.884705 
	C47.346828,187.358337 48.869541,184.824295 50.681614,182.118652 
z"/>
<path fill="#3F6537" opacity="1.000000" stroke="none" 
	d="
M84.614059,130.029419 
	C84.908081,132.467865 85.469078,135.366928 81.290863,135.953400 
	C82.042397,134.026810 83.182114,132.110474 84.614059,130.029419 
z"/>
<path fill="#3F6537" opacity="1.000000" stroke="none" 
	d="
M88.577576,123.998528 
	C87.773788,125.845322 86.686562,127.871201 85.230255,129.905853 
	C86.005501,128.002289 87.149818,126.089951 88.577576,123.998528 
z"/>
<path fill="#3F6537" opacity="1.000000" stroke="none" 
	d="
M78.069183,139.778488 
	C79.748428,142.514328 78.133797,143.932205 75.268127,144.939468 
	C75.874428,143.304565 76.855804,141.644379 78.069183,139.778488 
z"/>
<path fill="#416738" opacity="1.000000" stroke="none" 
	d="
M445.062622,367.251160 
	C445.678833,365.987305 446.539215,364.545532 447.772705,363.099365 
	C447.199493,364.421112 446.253143,365.747192 445.062622,367.251160 
z"/>
<path fill="#3F6537" opacity="1.000000" stroke="none" 
	d="
M126.627228,67.028397 
	C126.198792,68.240753 125.487938,69.610085 124.387726,70.990067 
	C124.780518,69.728928 125.562660,68.457146 126.627228,67.028397 
z"/>
<path fill="#396231" opacity="1.000000" stroke="none" 
	d="
M40.639587,198.115326 
	C40.347958,199.216354 39.784679,200.475052 38.874420,201.607391 
	C39.140934,200.411682 39.754436,199.342331 40.639587,198.115326 
z"/>
<path fill="#416739" opacity="1.000000" stroke="none" 
	d="
M385.912384,427.304565 
	C386.359589,426.420044 387.041962,425.382019 388.089539,424.528198 
	C387.685699,425.525299 386.916626,426.338165 385.912384,427.304565 
z"/>
<path fill="#3F6537" opacity="1.000000" stroke="none" 
	d="
M80.659454,136.053986 
	C80.350586,137.121307 79.764381,138.341125 78.809540,139.463806 
	C79.087975,138.313278 79.735054,137.259888 80.659454,136.053986 
z"/>
<path fill="#3A5F34" opacity="1.000000" stroke="none" 
	d="
M68.272415,489.952209 
	C68.779839,489.576904 69.547607,489.281372 70.678963,489.331055 
	C71.069214,489.905090 71.095871,490.133972 71.122536,490.362854 
	C70.259270,490.252563 69.396011,490.142273 68.272415,489.952209 
z"/>
<path fill="#3F6537" opacity="1.000000" stroke="none" 
	d="
M128.696533,64.070213 
	C128.509415,64.895134 128.051529,65.881676 127.231323,66.893875 
	C127.387932,66.023636 127.906853,65.127731 128.696533,64.070213 
z"/>
<path fill="#396231" opacity="1.000000" stroke="none" 
	d="
M43.699898,193.102631 
	C43.549091,193.923431 43.131241,194.906769 42.366776,195.949356 
	C42.491058,195.094116 42.961952,194.179626 43.699898,193.102631 
z"/>
<path fill="#396231" opacity="1.000000" stroke="none" 
	d="
M45.607159,189.993225 
	C45.477207,190.849136 45.071556,191.864685 44.305256,192.926437 
	C44.406891,192.032715 44.869175,191.092804 45.607159,189.993225 
z"/>
<path fill="#305B2B" opacity="1.000000" stroke="none" 
	d="
M65.328156,489.745331 
	C65.007538,489.259735 65.005074,488.888824 65.006027,488.238953 
	C65.638878,488.375031 66.268311,488.790070 66.944534,489.509827 
	C66.542992,489.829712 66.094658,489.844879 65.328156,489.745331 
z"/>
<path fill="#305B2B" opacity="1.000000" stroke="none" 
	d="
M71.548615,490.512421 
	C71.095871,490.133972 71.069214,489.905090 71.006332,489.332306 
	C71.923271,489.029083 72.876427,489.069733 74.297768,489.269745 
	C73.835541,489.840088 72.905121,490.251068 71.548615,490.512421 
z"/>
<path fill="#3A6132" opacity="1.000000" stroke="none" 
	d="
M340.777100,471.384399 
	C340.824707,471.044098 341.107513,470.564728 341.720398,470.056152 
	C341.704407,470.433044 341.358368,470.839172 340.777100,471.384399 
z"/>
<path fill="#3D6335" opacity="1.000000" stroke="none" 
	d="
M448.323578,363.056519 
	C448.260406,362.852783 448.452545,362.554596 448.900696,362.161987 
	C448.964081,362.365753 448.771484,362.663910 448.323578,363.056519 
z"/>
<path fill="#285822" opacity="1.000000" stroke="none" 
	d="
M190.767517,15.833549 
	C190.758438,16.033455 190.482101,16.175774 190.100311,16.151325 
	C190.163315,15.915029 190.331787,15.845496 190.767517,15.833549 
z"/>
<path fill="#3A5F34" opacity="1.000000" stroke="none" 
	d="
M75.836655,490.880554 
	C75.948853,490.667664 76.271347,490.567108 76.792374,490.673492 
	C76.990898,490.880432 76.527626,491.010101 76.527626,491.010101 
	C76.527626,491.010101 76.046944,490.992920 75.836655,490.880554 
z"/>
<path fill="#FEFEFD" opacity="1.000000" stroke="none" 
	d="
M364.934570,217.000000 
	C364.934540,228.469315 364.934540,239.438644 364.934540,250.389618 
	C327.405518,250.389618 290.190369,250.389618 252.053192,250.389618 
	C252.053192,191.633102 252.053192,133.593719 252.053192,75.193169 
	C281.093658,75.193169 310.638153,75.193169 340.772949,75.193169 
	C340.772949,111.173622 340.772949,147.053894 340.772949,183.512192 
	C349.092712,183.512192 356.840637,183.512192 364.934570,183.512192 
	C364.934570,194.894699 364.934570,205.697357 364.934570,217.000000 
z"/>
<path fill="#416739" opacity="1.000000" stroke="none" 
	d="
M354.356934,451.256165 
	C354.371674,451.007751 354.504578,450.872437 354.637451,450.737122 
	C354.583313,450.947815 354.529175,451.158539 354.356934,451.256165 
z"/>
</svg>